<svg width="22" height="19" viewBox="0 0 22 19" fill="none" xmlns="http://www.w3.org/2000/svg">
<path d="M10.2662 18.0055L10.8392 17.5216C9.75196 16.2342 8.3493 15.0837 7.05458 14.0217L7.00797 13.9835L7.00767 13.9833C5.59636 12.8268 4.23983 11.7113 3.2258 10.4471C2.22617 9.20071 1.59616 7.85294 1.59616 6.23907C1.59616 4.7558 2.11195 3.54076 2.95619 2.69809C3.80052 1.85532 5.01863 1.33984 6.50647 1.33984C8.10916 1.33984 9.56783 2.50823 10.4559 3.43777L10.9982 4.00543L11.5405 3.43777C12.4279 2.50885 13.8904 1.33984 15.4945 1.33984C16.9818 1.33984 18.1997 1.85528 19.0439 2.69806C19.8881 3.54074 20.4039 4.75579 20.4039 6.23907C20.4039 7.85331 19.7735 9.20129 18.7735 10.4477C17.7591 11.712 16.4024 12.8272 14.9914 13.9832L14.9782 13.9941C13.6726 15.0634 12.2569 16.2228 11.1588 17.5208C11.1242 17.5613 11.0751 17.5832 11.0259 17.5832H10.9723C10.9223 17.5832 10.8725 17.5609 10.8379 17.5202L10.2662 18.0055ZM10.2662 18.0055C10.4425 18.2132 10.7009 18.3332 10.9723 18.3332H11.0259C11.2982 18.3332 11.5557 18.2123 11.7311 18.0055L10.4613 2.39596C9.50932 1.53218 8.10503 0.589844 6.50647 0.589844C3.17324 0.589844 0.846161 2.91323 0.846161 6.23907C0.846161 9.90369 3.73631 12.2723 6.53231 14.5634L6.55142 14.5791C7.86549 15.6569 9.22352 16.7709 10.2662 18.0055Z" stroke="white" stroke-width="1.5"/>
</svg>
