<svg width="22" height="19" viewBox="0 0 22 19" fill="none" xmlns="http://www.w3.org/2000/svg">
<path d="M10.6366 3.26508L10.9982 3.64351L11.3597 3.26508C12.2541 2.32887 13.7802 1.08984 15.4945 1.08984C17.0414 1.08984 18.3249 1.62708 19.2205 2.52113C20.1161 3.41511 20.6539 4.69591 20.6539 6.23907C20.6539 7.92616 19.9926 9.32765 18.9685 10.6041C17.9348 11.8925 16.5564 13.0242 15.15 14.1766C15.1499 14.1766 15.1499 14.1766 15.1499 14.1766L15.1461 14.1798C13.8341 15.2543 12.4331 16.4017 11.3498 17.6821C11.2683 17.7782 11.1496 17.8332 11.0259 17.8332H10.9723C10.8487 17.8332 10.7295 17.7785 10.6477 17.6823C9.57542 16.4128 8.18795 15.2747 6.88733 14.2079L6.84942 14.1768L6.84922 14.1766C5.44235 13.0238 4.06415 11.8919 3.03078 10.6035C2.00701 9.32704 1.34616 7.92575 1.34616 6.23907C1.34616 4.69591 1.88395 3.41512 2.77958 2.52115C3.67528 1.62711 4.95904 1.08984 6.50647 1.08984C8.21954 1.08984 9.74184 2.32846 10.6366 3.26508Z" fill="#50E3C2" stroke="#50E3C2"/>
</svg>
